<?xml version="1.0" standalone="no"?>
<!DOCTYPE svg PUBLIC "-//W3C//DTD SVG 20010904//EN"
 "http://www.w3.org/TR/2001/REC-SVG-20010904/DTD/svg10.dtd">
<svg version="1.0" xmlns="http://www.w3.org/2000/svg"
 width="200.000000pt" height="190.000000pt" viewBox="0 0 200.000000 190.000000"
 preserveAspectRatio="xMidYMid meet">

<g transform="translate(0.000000,190.000000) scale(0.100000,-0.100000)"
fill="#000000" stroke="none">
<path d="M294 1845 c-10 -15 -14 -37 -12 -55 4 -24 1 -30 -14 -30 -28 0 -32
-26 -9 -56 26 -33 28 -112 5 -252 -16 -99 -12 -224 7 -219 5 1 18 -21 27 -48
10 -28 40 -81 67 -118 28 -37 57 -88 66 -114 l17 -48 7 43 8 43 23 -42 c13
-22 35 -55 49 -71 31 -37 32 -81 5 -272 -19 -133 -27 -155 -57 -156 -27 0
-200 -63 -266 -96 -77 -38 -163 -99 -171 -121 -3 -7 20 0 55 17 130 66 360
125 589 151 135 15 486 15 615 0 243 -29 459 -85 610 -158 l50 -24 -47 44
c-58 54 -178 118 -294 156 l-89 29 -7 41 c-4 22 -18 60 -31 83 -14 24 -33 70
-42 102 -13 46 -26 69 -58 98 -31 28 -37 38 -24 38 18 0 18 1 -1 28 -38 54
-34 62 16 33 38 -21 59 -26 112 -25 105 1 172 46 224 150 30 61 34 92 7 50
-18 -28 -100 -90 -108 -83 -2 2 4 20 12 40 l15 37 -32 -20 c-20 -12 -51 -20
-77 -20 -41 0 -43 1 -29 18 30 34 32 45 9 37 -33 -10 -126 13 -148 38 -11 12
-26 38 -32 58 -27 84 -119 129 -265 129 -79 0 -97 3 -119 20 -14 12 -46 30
-71 41 -25 11 -48 24 -52 30 -3 6 -24 24 -46 40 -37 26 -39 29 -17 29 18 0 4
12 -53 45 -88 52 -107 71 -60 62 18 -4 32 -5 32 -2 0 2 -26 20 -58 40 -54 33
-89 69 -118 118 -6 11 -37 33 -70 51 -39 21 -68 45 -87 74 -16 23 -32 42 -37
42 -5 0 -17 -11 -26 -25z m686 -929 l35 -13 -4 -77 c-4 -91 7 -113 76 -152 65
-37 73 -49 73 -113 l0 -56 -174 -1 -174 0 1 150 c1 83 -1 174 -6 203 -7 50 -7
51 20 61 38 14 111 13 153 -2z m-270 -33 c1 -5 7 -48 14 -98 18 -117 3 -295
-24 -295 -10 0 -31 -3 -47 -6 l-30 -6 18 94 c26 130 33 236 21 281 -10 37 -10
37 19 37 16 0 29 -3 29 -7z m565 -167 c29 -13 42 -31 90 -126 31 -62 55 -113
53 -115 -2 -1 -41 4 -88 11 -47 7 -87 13 -89 13 -2 1 -1 36 2 79 5 70 4 80
-13 95 -24 20 -27 57 -5 57 9 0 31 -6 50 -14z"/>
<path d="M181 244 c-44 -37 -44 -91 0 -128 31 -26 72 -33 98 -17 22 14 5 28
-29 23 -38 -6 -70 21 -70 58 0 37 32 64 70 58 34 -5 51 9 29 23 -26 16 -67 9
-98 -17z"/>
<path d="M350 230 c12 -23 30 -45 42 -49 14 -5 17 -10 10 -15 -18 -11 -15 -76
3 -76 10 0 15 11 15 35 0 20 12 55 30 85 34 58 35 60 17 60 -7 0 -24 -19 -37
-42 l-23 -42 -21 42 c-12 27 -27 42 -38 42 -17 0 -17 -2 2 -40z"/>
<path d="M520 255 c0 -11 12 -15 45 -15 38 0 45 -3 45 -20 0 -16 -7 -20 -30
-20 -20 0 -30 5 -30 15 0 9 -6 12 -15 9 -11 -5 -15 -22 -15 -70 l0 -64 49 0
c33 0 56 6 72 19 22 18 23 22 11 53 -6 19 -12 46 -12 61 0 32 -25 47 -79 47
-30 0 -41 -4 -41 -15z m105 -110 c0 -16 -8 -21 -37 -23 -35 -3 -38 -1 -38 23
0 24 3 26 38 23 29 -2 37 -7 37 -23z"/>
<path d="M700 255 c0 -12 13 -15 60 -15 47 0 60 3 60 15 0 12 -13 15 -60 15
-47 0 -60 -3 -60 -15z"/>
<path d="M860 256 c0 -10 14 -16 43 -18 34 -2 42 -7 42 -23 0 -14 -8 -21 -27
-23 -23 -3 -28 1 -28 18 0 13 -5 20 -12 18 -8 -3 -14 -29 -16 -71 -2 -55 0
-67 13 -67 11 0 15 10 15 35 0 24 5 35 14 35 8 0 24 -16 36 -35 13 -21 30 -35
41 -35 19 0 18 3 -7 35 -25 33 -26 37 -10 54 38 42 3 91 -66 91 -26 0 -38 -4
-38 -14z"/>
<path d="M1020 264 c0 -3 17 -43 37 -90 l37 -85 24 48 25 48 20 -43 c12 -23
24 -42 28 -42 3 0 15 21 27 48 11 26 27 64 36 85 14 33 15 37 1 37 -9 0 -26
-24 -41 -57 l-26 -58 -22 50 -23 50 -23 -50 -23 -50 -25 58 c-14 31 -31 57
-39 57 -7 0 -13 -3 -13 -6z"/>
<path d="M1332 255 c-17 -13 -21 -20 -13 -28 8 -8 14 -8 23 1 32 32 108 -2
108 -48 0 -43 -69 -77 -106 -52 -19 12 -34 50 -28 66 4 11 1 16 -10 16 -11 0
-16 -9 -16 -33 0 -36 26 -71 61 -82 31 -10 84 3 105 26 26 29 25 93 -2 120
-29 28 -92 35 -122 14z"/>
<path d="M1520 199 c0 -52 3 -70 13 -67 7 3 13 29 15 71 2 55 0 67 -13 67 -12
0 -15 -14 -15 -71z"/>
<path d="M1680 255 c0 -12 13 -15 60 -15 47 0 60 3 60 15 0 12 -13 15 -60 15
-47 0 -60 -3 -60 -15z"/>
<path d="M707 223 c-4 -3 -7 -35 -7 -70 l0 -63 60 0 c47 0 60 3 60 15 0 11
-12 15 -45 15 -38 0 -45 3 -45 20 0 16 7 20 35 20 24 0 35 5 35 15 0 10 -11
15 -35 15 -28 0 -35 4 -35 20 0 20 -11 26 -23 13z"/>
<path d="M1687 223 c-4 -3 -7 -35 -7 -70 0 -49 3 -63 15 -63 10 0 15 10 15 30
0 28 3 30 35 30 24 0 35 5 35 15 0 10 -11 15 -35 15 -31 0 -35 3 -35 25 0 24
-10 32 -23 18z"/>
<path d="M1520 105 c0 -12 13 -15 60 -15 47 0 60 3 60 15 0 12 -13 15 -60 15
-47 0 -60 -3 -60 -15z"/>
</g>
</svg>
